<svg width="200" height="200" viewBox="0 0 200 200" fill="none" xmlns="http://www.w3.org/2000/svg">
  <!-- Person with binoculars -->
  <g transform="translate(50, 60)">
    <!-- Head -->
    <circle cx="50" cy="30" r="20" fill="#E2E8F0"/>
    
    <!-- Binoculars -->
    <rect x="30" y="35" width="40" height="20" rx="5" fill="#60A5FA"/>
    <circle cx="35" cy="45" r="8" fill="#2563EB"/>
    <circle cx="65" cy="45" r="8" fill="#2563EB"/>
    
    <!-- Arms holding binoculars -->
    <path d="M30 50 L20 70 L15 65" stroke="#E2E8F0" stroke-width="4" stroke-linecap="round"/>
    <path d="M70 50 L80 70 L85 65" stroke="#E2E8F0" stroke-width="4" stroke-linecap="round"/>
    
    <!-- Body -->
    <path d="M40 50 L30 90 L70 90 L60 50" fill="#3B82F6"/>
    
    <!-- Legs -->
    <path d="M40 90 L30 120" stroke="#E2E8F0" stroke-width="6" stroke-linecap="round"/>
    <path d="M60 90 L70 120" stroke="#E2E8F0" stroke-width="6" stroke-linecap="round"/>
    
    <!-- Hair -->
    <path d="M40 15 C40 5, 60 5, 60 15" stroke="#64748B" stroke-width="4" fill="none"/>
    
    <!-- Face details -->
    <circle cx="42" cy="25" r="2" fill="#1E293B"/>
    <circle cx="58" cy="25" r="2" fill="#1E293B"/>
    <path d="M45 32 C48 35, 52 35, 55 32" stroke="#1E293B" stroke-width="1.5" fill="none"/>
  </g>
  
  <!-- Decorative elements -->
  <circle cx="150" cy="40" r="15" fill="#DBEAFE" opacity="0.6"/>
  <circle cx="30" cy="160" r="20" fill="#DBEAFE" opacity="0.6"/>
  <circle cx="170" cy="140" r="10" fill="#DBEAFE" opacity="0.6"/>
  
  <!-- Search symbols -->
  <g transform="translate(130, 70) rotate(20)">
    <circle cx="0" cy="0" r="10" stroke="#3B82F6" stroke-width="3" fill="none"/>
    <line x1="8" y1="8" x2="15" y2="15" stroke="#3B82F6" stroke-width="3" stroke-linecap="round"/>
  </g>
  
  <g transform="translate(20, 50) rotate(-15)">
    <circle cx="0" cy="0" r="8" stroke="#3B82F6" stroke-width="2" fill="none"/>
    <line x1="6" y1="6" x2="12" y2="12" stroke="#3B82F6" stroke-width="2" stroke-linecap="round"/>
  </g>
</svg> 